<svg xmlns="http://www.w3.org/2000/svg" xmlns:xlink="http://www.w3.org/1999/xlink" width="74" height="74" viewBox="0 0 74 74">
  <defs>
    <clipPath id="clip-path">
      <path id="Isotipo_Negativo" data-name="Isotipo Negativo" d="M-126.554-69.141a36.995,36.995,0,0,0-37,37,36.995,36.995,0,0,0,37,37,36.994,36.994,0,0,0,37-37A36.994,36.994,0,0,0-126.554-69.141Zm3.02,54.506a15.223,15.223,0,0,1-21.51.005l-1.8-1.795v-.01a10.14,10.14,0,0,1,0-14.338l8.969,8.969a5.091,5.091,0,0,0,7.17,0,5.1,5.1,0,0,0,0-7.184l-10.762-10.743v-.005a10.149,10.149,0,0,1,0-14.343l17.935,17.917A15.229,15.229,0,0,1-123.534-14.635Zm7.066-9.2c.048-.531.07-1.035.07-1.556a17.8,17.8,0,0,0-2.1-8.428,5.07,5.07,0,0,0,5.061-5.069,5.076,5.076,0,0,0-5.07-5.072h-9.043L-137.7-54.095h19.189A15.211,15.211,0,0,1-103.3-38.89,15.224,15.224,0,0,1-116.468-23.837Z" transform="translate(172.554 78.141)" fill="#fff" clip-rule="evenodd"/>
    </clipPath>
  </defs>
  <g id="Load" transform="translate(-9 -9)" clip-path="url(#clip-path)">
    <g id="Rectángulo_9" data-name="Rectángulo 9" fill="#fff" stroke="#707070" stroke-width="1">
      <rect width="92" height="92" stroke="none"/>
      <rect x="0.5" y="0.5" width="91" height="91" fill="none"/>
    </g>
  </g>
</svg>
