<svg id="Logo_Positivo" data-name="Logo Positivo" xmlns="http://www.w3.org/2000/svg" width="226.769" height="56.691" viewBox="0 0 226.769 56.691">
  <path id="Trazado_11" data-name="Trazado 11" d="M51.025,22.679A28.346,28.346,0,1,0,79.371,51.026,28.342,28.342,0,0,0,51.025,22.679Zm2.314,41.757a11.662,11.662,0,0,1-16.479,0l-1.377-1.375v-.007a7.769,7.769,0,0,1,0-10.985l6.872,6.871a3.888,3.888,0,0,0,5.492-5.5L39.6,45.21v0a7.775,7.775,0,0,1,0-10.988l13.74,13.726A11.665,11.665,0,0,1,53.339,64.436Zm5.413-7.05c.037-.407.054-.793.054-1.192A13.635,13.635,0,0,0,57.2,49.737a3.885,3.885,0,0,0-.007-7.769H50.262l-7.773-7.762h14.7a11.642,11.642,0,0,1,1.562,23.18Z" transform="translate(-22.679 -22.679)" fill="#ffffff" fill-rule="evenodd"/>
  <g id="Grupo_5" data-name="Grupo 5" transform="translate(-22.679 -22.679)">
    <path id="Trazado_12" data-name="Trazado 12" d="M89.925,43.972c.849-7.3,11.7-8.606,16.819-4.617,2.517,2.066-.153,5.331-2.378,3.679-2.736-1.758-8.951-2.59-9.731,1.324-1.011,6.165,15.115,2.625,14.846,12.625-.255,9.561-13.886,9.78-18.994,5.5a2.818,2.818,0,0,1-.527-3.7,2.176,2.176,0,0,1,3.307-.254c3.031,2.1,10.849,3.684,11.407-1.668C104.188,51.315,88.779,54.655,89.925,43.972Z" fill="#ffffff"/>
    <path id="Trazado_13" data-name="Trazado 13" d="M110.34,41.862c-2-2.507,2.186-5.41,4.141-2.656l6.823,10.3,6.925-10.3c1.954-2.754,6,0,4.063,2.5l-8.664,12.539v7.734c.345,3.28-4.889,3.28-4.889,0V54.249Z" fill="#ffffff"/>
    <path id="Trazado_14" data-name="Trazado 14" d="M154.482,61.468a13.882,13.882,0,0,1-9.1,3.156c-7.776,0-13.3-4.516-13.3-13.461a13.3,13.3,0,0,1,13.628-13.512,12.025,12.025,0,0,1,8.453,3.317c2.256,2.262-1.006,5.6-3.232,3.609a7.759,7.759,0,0,0-5.221-2.363,8.884,8.884,0,0,0-8.8,8.949c0,5.559,3.628,8.945,8.478,8.945a9.278,9.278,0,0,0,5.547-1.683V53.784h-5.547c-3.3,0-2.969-4.578,0-4.578h7.4a2.554,2.554,0,0,1,2.633,2.223V59.44A3.1,3.1,0,0,1,154.482,61.468Z" fill="#ffffff"/>
    <path id="Trazado_15" data-name="Trazado 15" d="M158.594,40.585A2.572,2.572,0,0,1,161.121,38h8.553c4.808,0,9.144,3.277,9.144,9.547a8.834,8.834,0,0,1-9.144,9.25h-6.182v4.965a2.355,2.355,0,0,1-2.371,2.6,2.53,2.53,0,0,1-2.527-2.6Zm4.9,2.141V52.1h6.182a4.694,4.694,0,0,0,0-9.375Z" fill="#ffffff"/>
    <path id="Trazado_16" data-name="Trazado 16" d="M177.894,64.366a2.681,2.681,0,0,1-1.185-3.621l10.627-21.1a2.5,2.5,0,0,1,4.6,0l10.44,21.1c1.521,2.938-2.963,5.26-4.3,2.332l-1.625-3.308H182.789L181.2,63.077C180.6,64.366,179.234,64.624,177.894,64.366ZM193.82,54.8l-4.181-9.281L185.078,54.8Z" fill="#ffffff"/>
    <path id="Trazado_17" data-name="Trazado 17" d="M209.937,61.9c0,3.28-4.925,3.4-4.925.078V40.624a2.227,2.227,0,0,1,2.218-2.285h9.856c9.408,0,11.332,12.785,3.48,15.988l4.926,6.09c1.924,2.894-1.924,5.666-4.144,2.816l-5.6-8.125h-5.813Zm0-11.129h7.149c4.812,0,5.111-7.9,0-7.9h-7.149Z" fill="#ffffff"/>
    <path id="Trazado_18" data-name="Trazado 18" d="M236.6,52.843l-3.52,3.953v5.265c0,3.124-4.885,3.163-4.885,0V40.585c0-3.187,4.885-3.3,4.885,0v9.559l10.705-11.208a2.293,2.293,0,0,1,3.522,0,2.195,2.195,0,0,1,0,3.352c-2.184,2.621-4.739,4.965-7.114,7.586l8.668,10.652c2.227,3.121-2.515,5.366-4,2.973Z" fill="#ffffff"/>
  </g>
</svg>
