<svg xmlns="http://www.w3.org/2000/svg" width="120" height="38.218" viewBox="0 0 120 38.218">
  <g id="Grupo_435" data-name="Grupo 435" transform="translate(-127.5 -595)">
    <text id="Powered_by" data-name="Powered by" transform="translate(188 608)" fill="#fff" font-size="12" font-family="SegoeUI-Light, Segoe UI" font-weight="300"><tspan x="-29.355" y="0">Powered by</tspan></text>
    <g id="LOGO_Piv" data-name="LOGO Piv" transform="translate(127.5 615)">
      <g id="Grupo_62" data-name="Grupo 62">
        <path id="Trazado_320" data-name="Trazado 320" d="M8.242,16.731a4.394,4.394,0,0,0-1.518-1.087,4.933,4.933,0,0,0-2-.394,4.393,4.393,0,0,0-1.92.434l-.1-.291H0V29.434H3.124V25.043a4.321,4.321,0,0,0,1.6.3,5.057,5.057,0,0,0,2.024-.391,4.332,4.332,0,0,0,1.524-1.1A4.847,4.847,0,0,0,9.2,22.233a5.888,5.888,0,0,0,.317-1.944,5.636,5.636,0,0,0-.328-1.942,4.8,4.8,0,0,0-.95-1.614ZM3.436,18.519a1.258,1.258,0,0,1,1.14-.537,1.5,1.5,0,0,1,1.267.569,2.79,2.79,0,0,1,.484,1.735,2.8,2.8,0,0,1-.484,1.743,1.485,1.485,0,0,1-1.267.571,1.216,1.216,0,0,1-1.14-.537,3.168,3.168,0,0,1-.421-1.78,3.12,3.12,0,0,1,.421-1.767Z" transform="translate(0 -11.216)" fill="#fff"/>
        <rect id="Rect치ngulo_90" data-name="Rect치ngulo 90" width="3.116" height="9.766" transform="translate(13.472 4.177)" fill="#fff"/>
        <rect id="Rect치ngulo_91" data-name="Rect치ngulo 91" width="3.116" height="3.127" transform="translate(13.472)" fill="#fff"/>
        <path id="Trazado_321" data-name="Trazado 321" d="M82.691,15.79l-1.844,5.193L79.006,15.79H75.84l3.751,9.766H82.1l3.751-9.766Z" transform="translate(-55.779 -11.613)" fill="#fff"/>
      </g>
      <g id="Grupo_63" data-name="Grupo 63" transform="translate(33.814 3.714)">
        <path id="Trazado_322" data-name="Trazado 322" d="M129.092,17.119H127.83v-1.4h1.262Zm0,8.385H127.83V18.656h1.262Z" transform="translate(-127.83 -15.276)" fill="#fff"/>
        <path id="Trazado_323" data-name="Trazado 323" d="M157.911,33.279H156.66V29.5a2.509,2.509,0,0,0-.413-1.6,1.717,1.717,0,0,0-1.378-.5,1.962,1.962,0,0,0-1.875.894v4.973H151.74V26.428h.973l.143.73a3.311,3.311,0,0,1,2.264-.868c1.862,0,2.788,1.074,2.788,3.211v3.775Z" transform="translate(-145.415 -23.05)" fill="#fff"/>
        <path id="Trazado_324" data-name="Trazado 324" d="M195.281,36.77a5.078,5.078,0,0,1-1.413-.169,3.035,3.035,0,0,1-1-.452,1.855,1.855,0,0,1-.587-.664,1.666,1.666,0,0,1-.2-.783,1.6,1.6,0,0,1,1.217-1.54c-.466-.22-.7-.508-.7-.87a.952.952,0,0,1,.188-.518,1.533,1.533,0,0,1,.624-.495,2.617,2.617,0,0,1-1.188-2.238,3.072,3.072,0,0,1,.185-1.085,2.506,2.506,0,0,1,.548-.876,2.453,2.453,0,0,1,.881-.582,3.09,3.09,0,0,1,1.177-.209,3.317,3.317,0,0,1,1.751.5,3.466,3.466,0,0,1,1.664-.391h.108l-.151.839h-.32a3.63,3.63,0,0,0-.815.087,2.528,2.528,0,0,1,.63,1.645,2.732,2.732,0,0,1-.193,1.034,2.672,2.672,0,0,1-.553.865,2.53,2.53,0,0,1-.865.6,2.741,2.741,0,0,1-1.151.227,3.5,3.5,0,0,1-.979-.127c-.225.132-.333.265-.333.421a.311.311,0,0,0,.077.217.757.757,0,0,0,.309.161c.153.045.37.087.64.143s.64.119,1.1.2c.31.058.624.127.952.209a4.25,4.25,0,0,1,.889.339,1.951,1.951,0,0,1,.664.537,1.356,1.356,0,0,1,.294.817,1.511,1.511,0,0,1-.235.82,2.22,2.22,0,0,1-.68.69,3.731,3.731,0,0,1-1.085.466,5.265,5.265,0,0,1-1.436.175Zm.333-3.129a11.543,11.543,0,0,1-1.243-.167,1.691,1.691,0,0,0-.783.489,1.111,1.111,0,0,0-.309.712.92.92,0,0,0,.545.8,3.045,3.045,0,0,0,1.513.317,3.11,3.11,0,0,0,1.555-.331.929.929,0,0,0,.555-.762c0-.484-.616-.831-1.836-1.061Zm-.587-6.349a1.515,1.515,0,0,0-1.188.473,1.781,1.781,0,0,0-.421,1.227,1.734,1.734,0,0,0,.455,1.262,1.582,1.582,0,0,0,1.177.466,1.527,1.527,0,0,0,1.2-.5,1.881,1.881,0,0,0,.426-1.27,1.623,1.623,0,0,0-.444-1.222,1.657,1.657,0,0,0-1.2-.439Z" transform="translate(-175.085 -23.05)" fill="#fff"/>
        <path id="Trazado_325" data-name="Trazado 325" d="M237.561,29.863H232.6a2.35,2.35,0,0,0,2.574,2.439,4.785,4.785,0,0,0,1.965-.4l.169.995a5.708,5.708,0,0,1-2.288.524,4.026,4.026,0,0,1-1.563-.275,3.333,3.333,0,0,1-1.167-.762,3.274,3.274,0,0,1-.727-1.145,4.178,4.178,0,0,1-.019-2.817,3.465,3.465,0,0,1,.675-1.111,3.188,3.188,0,0,1,1.058-.741,3.742,3.742,0,0,1,2.59-.074,2.574,2.574,0,0,1,.936.571,2.809,2.809,0,0,1,.6.915,3.13,3.13,0,0,1,.22,1.212A3.5,3.5,0,0,1,237.561,29.863Zm-2.918-2.444a1.855,1.855,0,0,0-1.936,1.574h3.608a1.523,1.523,0,0,0-.421-1.161A1.7,1.7,0,0,0,234.643,27.419Z" transform="translate(-203.937 -23.057)" fill="#fff"/>
        <path id="Trazado_326" data-name="Trazado 326" d="M278.811,33.279H277.56V29.5a2.527,2.527,0,0,0-.41-1.6,1.7,1.7,0,0,0-1.378-.5,1.96,1.96,0,0,0-1.875.894v4.973H272.64V26.428h.976l.143.73a3.311,3.311,0,0,1,2.264-.868c1.862,0,2.788,1.074,2.788,3.211v3.775Z" transform="translate(-234.335 -23.05)" fill="#fff"/>
        <path id="Trazado_327" data-name="Trazado 327" d="M316.1,17.119H314.85v-1.4H316.1Zm0,8.385H314.85V18.656H316.1Z" transform="translate(-265.379 -15.276)" fill="#fff"/>
        <path id="Trazado_328" data-name="Trazado 328" d="M343.375,29.863h-4.962a2.346,2.346,0,0,0,2.574,2.439,4.776,4.776,0,0,0,1.965-.4l.169.995a5.688,5.688,0,0,1-2.288.524,4.022,4.022,0,0,1-1.561-.275,3.332,3.332,0,0,1-1.167-.762,3.231,3.231,0,0,1-.725-1.145,4.039,4.039,0,0,1-.251-1.431,3.9,3.9,0,0,1,.235-1.386,3.369,3.369,0,0,1,.672-1.111,3.215,3.215,0,0,1,1.058-.741,3.749,3.749,0,0,1,2.592-.074,2.519,2.519,0,0,1,.928.571,2.786,2.786,0,0,1,.6.915,3.233,3.233,0,0,1,.217,1.212,3.52,3.52,0,0,1-.056.669Zm-2.92-2.444a1.848,1.848,0,0,0-1.928,1.574h3.6a1.542,1.542,0,0,0-.418-1.161A1.713,1.713,0,0,0,340.455,27.419Z" transform="translate(-281.766 -23.057)" fill="#fff"/>
        <path id="Trazado_329" data-name="Trazado 329" d="M382.051,25.88l-.283,1.381h-.431a1.406,1.406,0,0,0-.447.077,2.613,2.613,0,0,0-.458.2,2.9,2.9,0,0,0-.4.283,1.02,1.02,0,0,0-.267.32v4.835H378.43V26.129h1.034l.151,1.135a5.918,5.918,0,0,1,1.169-1.058,2.129,2.129,0,0,1,1.151-.323h.111Z" transform="translate(-312.141 -22.748)" fill="#fff"/>
        <path id="Trazado_330" data-name="Trazado 330" d="M408.2,15.048l-2.616.894v-.571L408.2,14.04Zm-.7,9.221h-1.259V17.421H407.5Z" transform="translate(-332.109 -14.04)" fill="#fff"/>
        <path id="Trazado_331" data-name="Trazado 331" d="M436.241,32.436l-.2,1h-.1a5.259,5.259,0,0,1-.7-.034,2.14,2.14,0,0,1-.474-.164,1.061,1.061,0,0,1-.328-.323,3.257,3.257,0,0,1-.262-.473,2.675,2.675,0,0,1-2.1,1,2.109,2.109,0,0,1-1.534-.542,1.893,1.893,0,0,1-.574-1.442,1.75,1.75,0,0,1,.386-1.164,2.719,2.719,0,0,1,.976-.738,4.573,4.573,0,0,1,1.323-.4,10.518,10.518,0,0,1,1.407-.132,1.689,1.689,0,0,0-.354-1.246,1.637,1.637,0,0,0-1.137-.328,3.245,3.245,0,0,0-1.8.611l-.18-1.021a3.71,3.71,0,0,1,2.32-.709,3.042,3.042,0,0,1,1.116.177,1.64,1.64,0,0,1,.749.555,2.643,2.643,0,0,1,.418,1.016,7.375,7.375,0,0,1,.135,1.532V31a3.138,3.138,0,0,0,.135,1.124.632.632,0,0,0,.645.317h.124Zm-2.166-.923V29.878a5.348,5.348,0,0,0-2.159.4,1.158,1.158,0,0,0-.648,1.108.933.933,0,0,0,1.061,1.05,2.045,2.045,0,0,0,.973-.251,2.338,2.338,0,0,0,.772-.672Z" transform="translate(-350.055 -23.072)" fill="#fff"/>
      </g>
    </g>
  </g>
</svg>
