<svg id="Pin" xmlns="http://www.w3.org/2000/svg" width="47.652" height="57.472" viewBox="0 0 47.652 57.472">
  <path id="Trazado_20" data-name="Trazado 20" d="M-112.174.75A23.919,23.919,0,0,0-136,24.761c0,13.8,23.826,33.46,23.826,33.46s23.826-19.593,23.826-33.46A23.919,23.919,0,0,0-112.174.75Zm0,32.835c-6.324,0-11.451-4.86-11.451-10.855s5.127-10.855,11.451-10.855,11.451,4.86,11.451,10.855S-105.85,33.585-112.174,33.585Z" transform="translate(136 -0.75)" fill="#45bed7"/>
  <g id="Grupo_8" data-name="Grupo 8" transform="translate(4.966 4.321)">
    <path id="Trazado_21" data-name="Trazado 21" d="M-68.6,54.419c0,10.055-8.595,18.2-19.2,18.2s-19.2-8.143-19.2-18.2,8.6-18.2,19.2-18.2S-68.6,44.363-68.6,54.419Z" transform="translate(107 -36.22)" fill="#002f6a" fill-rule="evenodd"/>
    <g id="Grupo_7" data-name="Grupo 7" transform="translate(7.132 7.4)">
      <path id="Trazado_22" data-name="Trazado 22" d="M-94.807,51.892v0l5.584,5.285a2.414,2.414,0,0,1,0,3.533,2.743,2.743,0,0,1-3.72,0L-97.6,56.3a4.808,4.808,0,0,0,0,7.053v0l.933.883a8.205,8.205,0,0,0,11.16,0,7.214,7.214,0,0,0,0-10.587l-9.305-8.813A4.808,4.808,0,0,0-94.807,51.892Z" transform="translate(99.137 -44.829)" fill="#fff"/>
      <path id="Trazado_23" data-name="Trazado 23" d="M-82.251,44.827h-9.956l5.264,4.985h4.692a2.568,2.568,0,0,1,2.631,2.493A2.564,2.564,0,0,1-82.246,54.8a8.4,8.4,0,0,1,1.089,4.148,7.262,7.262,0,0,1-.037.764,7.637,7.637,0,0,0,6.835-7.4A7.7,7.7,0,0,0-82.251,44.827Z" transform="translate(98.492 -44.827)" fill="#fff"/>
    </g>
  </g>
</svg>
